<svg width="114" height="101" viewBox="0 0 114 101" fill="none" xmlns="http://www.w3.org/2000/svg">
<path d="M80.5 29C87.5 29 93.1364 30.3182 98.2273 33.2273C103.288 36.1667 107.182 40.3182 109.909 45.6818C112.636 51.0758 114 57.4242 114 64.7273C114 71.9091 112.636 78.2121 109.909 83.6364C107.152 89.0909 103.303 93.3333 98.3636 96.3636C93.4242 99.4242 87.6667 101 81 101C76.697 101 72.5909 100.258 68.7727 98.8636C64.9242 97.5 61.5303 95.3788 58.5909 92.5C55.6212 89.6212 53.2879 85.9545 51.5909 81.5C49.8939 77.0758 49.0454 71.803 49.0454 65.6818V60.6364H106.273V71.7273H64.8182C64.8485 74.8788 65.5303 77.6818 66.8636 80.1364C68.197 82.6212 70.0606 84.5758 72.4545 86C74.8182 87.4242 77.5758 88.1364 80.7273 88.1364C84.0909 88.1364 87.0455 87.3182 89.5909 85.6818C92.1364 84.0758 94.1212 81.9545 95.5455 79.3182C96.9394 76.7121 97.6515 73.8485 97.6818 70.7273V61.0455C97.6818 56.9849 96.9394 53.5 95.4545 50.5909C93.9697 47.7121 91.8939 45.5 89.2273 43.9546C86.5606 42.4394 83.3853 41.7273 79.8096 41.7273C77.4156 41.7273 75.3096 41.7273 73.3096 41.7273C71.1863 41.7273 69.8096 41.7273 67.8096 41.7273C65.8096 41.7273 65.3096 41.7273 63.3096 41.7273L33 41.8146V29C33 29 61.2023 29 66 29C71 29 75.0758 29 80.5 29Z" fill="white"/>
<path d="M33.5 101C26.5 101 20.8636 99.6818 15.7727 96.7727C10.7121 93.8333 6.81818 89.6818 4.09091 84.3182C1.36364 78.9242 0 72.5758 0 65.2727C0 58.0909 1.36364 51.7879 4.09091 46.3636C6.84849 40.9091 10.697 36.6667 15.6364 33.6364C20.5758 30.5758 26.3333 29 33 29C37.303 29 41.4091 29.7424 45.2273 31.1364C49.0758 32.5 52.4697 34.6212 55.4091 37.5C58.3788 40.3788 60.7121 44.0455 62.4091 48.5C64.1061 52.9242 64.9546 58.197 64.9546 64.3182V69.3636H7.72727V58.2727H49.1818C49.1515 55.1212 48.4697 52.3182 47.1364 49.8636C45.803 47.3788 43.9394 45.4242 41.5455 44C39.1818 42.5758 36.4242 41.8636 33.2727 41.8636C29.9091 41.8636 26.9545 42.6818 24.4091 44.3182C21.8636 45.9242 19.8788 48.0455 18.4545 50.6818C17.0606 53.2879 16.3485 56.1515 16.3182 59.2727V68.9545C16.3182 73.0152 17.0606 76.5 18.5455 79.4091C20.0303 82.2879 22.1061 84.5 24.7727 86.0454C27.4394 87.5606 30.6147 88.2727 34.1904 88.2727C36.5844 88.2727 38.6904 88.2727 40.6904 88.2727C42.8137 88.2727 44.1904 88.2727 46.1904 88.2727C48.1904 88.2727 48.6904 88.2727 50.6904 88.2727L81 88.1542V101C81 101 52.7977 101 48 101C43 101 38.9242 101 33.5 101ZM26.2727 20.7727L36.4545 0H52.5455L38.5909 20.7727H26.2727Z" fill="white"/>
</svg>
